<svg xmlns="http://www.w3.org/2000/svg" width="80.182" height="76.191" viewBox="0 0 80.182 76.191">
  <g id="Icon_material-pets" data-name="Icon material-pets" transform="translate(-3 -4.5)">
    <path id="Path_5" data-name="Path 5" d="M23.046,20.523A10.023,10.023,0,1,1,13.023,10.5,10.023,10.023,0,0,1,23.046,20.523Z" transform="translate(0 10.036)" fill="#5362be"/>
    <path id="Path_6" data-name="Path 6" d="M29.8,14.523A10.023,10.023,0,1,1,19.773,4.5,10.023,10.023,0,0,1,29.8,14.523Z" transform="translate(11.291 0)" fill="#5362be"/>
    <path id="Path_7" data-name="Path 7" d="M38.8,14.523A10.023,10.023,0,1,1,28.773,4.5,10.023,10.023,0,0,1,38.8,14.523Z" transform="translate(26.346 0)" fill="#5362be"/>
    <path id="Path_8" data-name="Path 8" d="M45.546,20.523A10.023,10.023,0,1,1,35.523,10.5,10.023,10.023,0,0,1,45.546,20.523Z" transform="translate(37.637 10.036)" fill="#5362be"/>
    <path id="Path_9" data-name="Path 9" d="M59.5,33.23c-3.488-4.089-6.415-7.577-9.943-11.667a17.009,17.009,0,0,0-7.016-5.292,8.117,8.117,0,0,0-1.323-.361,20.177,20.177,0,0,0-3.127-.16,16.818,16.818,0,0,0-3.167.2,8.117,8.117,0,0,0-1.323.361A17.271,17.271,0,0,0,26.583,21.6C23.1,25.693,20.168,29.181,16.64,33.27c-5.252,5.252-11.707,11.065-10.5,19.2,1.163,4.089,4.089,8.139,9.341,9.3,2.927.6,12.268-1.764,22.211-1.764h.722c9.943,0,19.284,2.325,22.211,1.764,5.252-1.163,8.179-5.252,9.341-9.3C71.2,44.295,64.75,38.482,59.5,33.23Z" transform="translate(5.002 18.818)" fill="#5362be"/>
  </g>
</svg>
